<svg width="32" height="32" viewBox="0 0 32 32" fill="none" xmlns="http://www.w3.org/2000/svg">
<path d="M7.9987 27.9998C7.26536 27.9998 6.63781 27.7389 6.11603 27.2172C5.59336 26.6945 5.33203 26.0665 5.33203 25.3332V13.3332C5.33203 12.9109 5.4267 12.5109 5.61603 12.1332C5.80448 11.7554 6.06536 11.4443 6.3987 11.1998L14.3987 5.19984C14.6431 5.02206 14.8987 4.88873 15.1654 4.79984C15.432 4.71095 15.7098 4.6665 15.9987 4.6665C16.2876 4.6665 16.5654 4.71095 16.832 4.79984C17.0987 4.88873 17.3543 5.02206 17.5987 5.19984L25.5987 11.1998C25.932 11.4443 26.1934 11.7554 26.3827 12.1332C26.5711 12.5109 26.6654 12.9109 26.6654 13.3332V25.3332C26.6654 26.0665 26.4045 26.6945 25.8827 27.2172C25.36 27.7389 24.732 27.9998 23.9987 27.9998H18.6654V18.6665H13.332V27.9998H7.9987Z" fill="#FE0000"/>
</svg>
