<svg width="145" height="84" viewBox="0 0 145 84" fill="none" xmlns="http://www.w3.org/2000/svg">
<path d="M117.55 16.3033L139.741 2.1134C142.146 0.26978 144.286 2.64332 143.217 8.42362C142.147 14.2039 135.463 24.4508 128.244 30.7566C121.026 37.0624 112.203 36.0114 109.262 35.4859C106.321 34.9605 99.3697 36.5369 98.5676 38.9016C97.7655 41.2662 94.5572 45.4701 90.0121 45.7328C85.467 45.9956 76.3768 50.9877 75.04 54.1406C73.7032 57.2934 68.6234 61.76 65.9498 61.76C63.2762 61.76 57.929 63.3365 56.5922 65.7012C55.2554 68.0658 47.2346 72.5324 44.561 73.5834C41.8874 74.6343 38.6791 74.6344 37.877 73.5834C37.075 72.5324 35.4708 70.956 33.3319 71.7442C31.1931 72.5324 25.8459 72.0069 24.5091 71.7442C23.1723 71.4815 20.4987 72.7952 17.023 73.8461C13.5473 74.8971 10.6064 80.4147 8.46752 81.7284C6.32865 83.0421 3.65513 82.7793 1.78362 80.1519C0.286406 78.05 5.08049 75.5977 7.66468 74.6344C12.745 72.5324 23.2264 68.1709 24.5097 67.5403C26.1139 66.7521 31.1922 67.5403 33.5985 66.2266C36.0047 64.9129 40.2831 65.9639 41.0852 67.0149C41.8873 68.0658 42.9567 69.6423 49.106 68.3286C55.2552 67.0149 52.8487 61.76 55.2549 60.1836C57.6611 58.6072 61.4051 59.1326 64.8808 58.6072C67.5764 58.1996 68.6469 54.4665 68.8721 52.4833C68.8854 52.3659 68.9362 52.2565 69.0212 52.1744C70.0698 51.1614 72.331 49.1658 73.9705 48.3603C75.6689 47.5257 81.8983 44.206 84.8665 42.6152C84.9113 42.5912 84.9577 42.5751 85.0076 42.5656L92.4729 41.1457C92.8262 41.0785 92.9951 40.6714 92.7932 40.3738L91.3386 38.2298C91.193 38.0152 91.2356 37.725 91.4367 37.5613L117.55 16.3033Z" stroke="#FE0000" stroke-width="3"/>
</svg>
