<svg width="211" height="138" viewBox="0 0 211 138" fill="none" xmlns="http://www.w3.org/2000/svg">
<path d="M80.6789 103.825L67.9605 117.034C65.8939 119.181 64.883 122.132 65.1995 125.094C65.8356 131.05 61.1682 136.242 55.179 136.242L12 136.242C5.37259 136.242 6.23371e-07 130.869 1.20276e-06 124.242L1.42269e-06 121.726C1.61061e-06 119.577 0.57741 117.467 1.67188 115.617L1.70799 115.555C2.80246 113.705 3.37987 111.595 3.37987 109.446L3.37987 108.338C3.37987 106.479 2.78795 104.67 1.68994 103.17C0.591922 101.671 3.33419e-06 99.8613 3.49664e-06 98.003L4.79269e-06 83.178C5.1674e-06 78.8918 2.2862 74.931 5.99773 72.7871L9.7683 70.609C11.5931 69.5549 13.6632 69 15.7706 69L26.2362 69C29.0086 69 31.6065 70.3536 33.1951 72.6258C34.7837 74.898 37.3816 76.2516 40.154 76.2516L40.6919 76.2516C45.9514 76.2516 50.2151 71.9879 50.2151 66.7284L50.2151 58.3752C50.2151 53.4419 46.2159 49.4427 41.2826 49.4427C36.3493 49.4427 32.3501 45.4435 32.3501 40.5102L32.3501 35.3903C32.3501 33.7103 31.6122 32.1151 30.3319 31.0274C29.297 30.1483 27.9833 29.6656 26.6254 29.6656L12 29.6656C5.3726 29.6656 9.94058e-06 24.293 1.052e-05 17.6656L1.10153e-05 12C1.15947e-05 5.37259 5.3726 1.09697e-06 12 1.67635e-06L67.8472 6.55867e-06C70.0521 6.75143e-06 72.2144 0.60749 74.0966 1.75576L91.0338 12.0882C92.9161 13.2365 95.0784 13.844 97.2833 13.844L119.336 13.844C123.36 13.844 127.116 11.827 129.339 8.47262L131.394 5.37133C133.617 2.01696 137.373 1.26368e-05 141.397 1.29886e-05L199 1.80244e-05C205.627 1.86038e-05 211 5.37259 211 12L211 15.4632C211 19.5244 208.946 23.3101 205.541 25.5238L204.629 26.1164C201.225 28.3301 199.17 32.1157 199.17 36.177L199.17 42.7492C199.17 44.6208 200.013 46.393 201.464 47.5749C202.915 48.7567 203.757 50.529 203.757 52.4005L203.757 55.1061C203.757 61.6872 198.422 67.0223 191.841 67.0223L182.983 67.0223C176.524 67.0223 171.225 72.1362 171.198 78.5955C171.18 82.9162 171.226 87.7085 171.407 92.0733C171.656 98.0618 175.441 99.8321 179.289 99.9048C182.204 99.9598 185.168 101.968 185.168 104.883C185.168 106.345 185.928 107.701 187.174 108.464L206.49 120.295C209.292 122.011 211 125.06 211 128.346C211 133.642 206.659 137.903 201.364 137.787C173.126 137.17 128.014 136.242 116.847 136.242C104.293 136.242 100.672 130.529 100.43 127.672L100.43 111.788C100.43 104.919 94.4379 99.5866 87.6148 100.385C84.9743 100.694 82.5229 101.91 80.6789 103.825Z" fill="black" fill-opacity="0.3"/>
</svg>
