<svg width="97" height="934" viewBox="0 0 97 934" fill="none" xmlns="http://www.w3.org/2000/svg">
<path d="M97 931.027H84.0667V812.865C84.0667 807.694 83.1613 803.988 81.3507 801.747C79.54 799.42 76.6516 798.256 72.6853 798.256C69.2365 798.256 66.5204 799.463 64.5373 801.876C62.5542 804.203 61.5627 808.082 61.5627 813.511L61.5627 891.467C61.5627 906.636 58.976 917.538 53.8027 924.175C48.6294 930.725 41.0849 934 31.1694 934C20.2191 934 12.2867 929.992 7.37204 921.977C2.45737 913.962 3.61474e-05 902.499 3.54954e-05 887.589L3.0119e-05 764.644H12.9334L12.9334 882.159C12.9334 886.899 13.7956 890.476 15.52 892.889C17.1583 895.302 19.9174 896.509 23.7974 896.509C27.2462 896.509 29.9191 895.302 31.816 892.889C33.6267 890.39 34.532 886.942 34.532 882.547L34.532 799.161C34.532 785.285 37.3773 775.417 43.068 769.556C48.6725 763.696 55.9151 760.765 64.796 760.765C76.0911 760.765 84.2822 764.73 89.3693 772.659C94.4564 780.502 97 792.396 97 808.34L97 931.027Z" fill="#EB0000"/>
<path d="M3.10211e-05 785.273L2.47233e-05 641.256C2.41919e-05 629.103 0.431137 619.063 1.29336 611.133C2.06936 603.118 3.49203 596.783 5.56136 592.129C7.54447 587.475 10.3036 584.2 13.8387 582.304C17.2876 580.408 21.6418 579.46 26.9013 579.46H32.8507C37.3342 579.46 41.2573 580.408 44.62 582.304C47.8964 584.2 50.5693 587.475 52.6387 592.129C54.708 596.697 56.26 602.989 57.2947 611.004C58.3293 618.933 58.8467 628.931 58.8467 640.997V696.07H97V738.732H63.5027C57.4671 738.732 53.156 736.405 50.5693 731.751C47.8965 727.011 46.56 718.565 46.56 706.413L46.56 639.834C46.56 634.318 45.6978 630.31 43.9733 627.811C42.1627 625.311 38.8431 624.061 34.0147 624.061H25.3493C20.6933 624.061 17.46 625.311 15.6494 627.811C13.8387 630.31 12.9334 634.318 12.9334 639.834L12.9334 785.273H3.10211e-05Z" fill="#EB0000"/>
<path d="M97 561.948H2.12552e-05L1.40076e-05 396.211H12.9333L12.9333 519.285H41.2573L41.2573 396.211H54.1907L54.1907 519.285H84.0667V396.211H97L97 561.948Z" fill="#EB0000"/>
<path d="M97 375.477H1.31009e-05L5.85337e-06 209.741H12.9333L12.9333 332.815H41.2573L41.2573 209.741L54.1906 209.741L54.1907 332.815H84.0666V209.741H97L97 375.477Z" fill="#EB0000"/>
<path d="M12.9333 226.498H6.58614e-06L0 75.8871C-6.03022e-07 62.0973 0.862223 50.3759 2.58667 40.723C4.31111 30.984 6.89778 23.141 10.3467 17.1942C13.7955 11.1611 18.1929 6.80872 23.5387 4.13694C28.7982 1.37898 34.9631 8.74018e-07 42.0333 5.65098e-07L54.9666 0C62.0369 -3.08921e-07 68.2449 1.29279 73.5906 3.87838C78.8502 6.37779 83.2044 10.6009 86.6533 16.5478C90.1022 22.4084 92.6889 30.2083 94.4133 39.9474C96.1377 49.6864 97 61.6663 97 75.8871V185.128H29.7467L29.7467 142.466H84.0666L84.0666 75.8871C84.0666 69.4231 83.6355 64.2088 82.7733 60.2442C81.9111 56.1935 80.4453 53.0908 78.376 50.9361C76.2204 48.6953 73.3751 47.187 69.84 46.4113C66.3049 45.6357 61.8644 45.2478 56.5186 45.2478H40.352C35.0062 45.2478 30.5658 45.6357 27.0307 46.4113C23.4955 47.187 20.6933 48.6953 18.624 50.9361C16.5547 53.0908 15.0889 56.1935 14.2267 60.2442C13.3644 64.2088 12.9333 69.4231 12.9333 75.8871L12.9333 226.498Z" fill="#EB0000"/>
</svg>
