<svg width="231" height="145" viewBox="0 0 231 145" fill="none" xmlns="http://www.w3.org/2000/svg">
<path d="M79.6124 125.352L126.434 134.948L160.894 142.01C180.24 145.975 180.505 141.573 180.183 133.867C179.861 126.16 182.172 124.087 190.014 128.878C197.856 133.668 209.219 136.634 211.778 133.338L229.388 110.663C229.558 110.443 229.513 110.131 229.292 109.962L191.107 80.7744C191.035 80.7191 190.949 80.6846 190.858 80.6744L156.791 76.838C156.622 76.8189 156.457 76.8852 156.348 77.0161C153.731 80.1656 147.601 86.1807 142.587 86.6739C142.56 86.6765 142.533 86.6767 142.506 86.6749C114.59 84.7624 107.852 77.6526 99.1941 67.6053C90.5324 57.553 87.8765 33.4508 84.8875 26.4712C81.8985 19.4916 66.2476 3.54998 57.7838 1.81532C49.32 0.0806535 41.1784 6.0524 36.2008 8.85242C32.3972 10.992 26.1706 10.5438 23.1613 9.9954C22.9258 9.95249 22.6928 10.0769 22.6005 10.2977L19.1025 18.6636C19.0884 18.6974 19.0706 18.7295 19.0495 18.7594L8.51555 33.6672C8.48583 33.7092 8.46277 33.7556 8.44719 33.8047L1.5272 55.6186C1.48078 55.765 1.50395 55.9246 1.59009 56.0518L16.2499 77.7086C16.3775 77.897 16.364 78.1456 16.2153 78.3173C12.9908 82.0402 7.03814 89.1595 6.295 91.0023C6.2418 91.1342 6.27333 91.2721 6.36016 91.385C15.5073 103.275 54.9687 108.837 65.9216 110.449C74.5107 111.712 78.3071 120.435 79.2155 124.951C79.2561 125.152 79.4109 125.31 79.6124 125.352Z" stroke="#36A07C" stroke-width="3"/>
</svg>
