<svg width="32" height="32" viewBox="0 0 32 32" fill="none" xmlns="http://www.w3.org/2000/svg">
<path d="M2.93525 14.9333C2.66859 18.1333 3.60192 20.7999 5.60192 23.1999C7.60192 25.5999 10.2686 26.6666 13.4686 26.6666H26.8019C27.4686 26.6666 28.1353 26.3999 28.6686 25.8666C29.2019 25.3333 29.4686 24.6666 29.4686 23.9999V22.9333C29.4686 22.1333 29.3353 21.1999 29.2019 19.9999H18.2686C16.9353 19.9999 15.8686 19.4666 14.9353 18.5333C14.0019 17.5999 13.4686 16.3999 13.4686 15.1999C13.4686 13.0666 14.4019 11.5999 16.4019 10.7999L22.8019 7.99994C20.5353 6.39994 17.8686 5.4666 14.8019 5.33327C11.8686 5.0666 9.20192 5.99994 6.80192 7.8666C4.40192 9.73327 3.20192 11.9999 2.93525 14.9333ZM16.1353 15.1999C16.1353 15.7333 16.4019 16.2666 16.8019 16.6666C17.2019 17.0666 17.7353 17.3333 18.2686 17.3333H28.6686C27.8686 14.3999 26.6686 11.9999 24.9353 10.1333L17.4686 13.1999C16.5353 13.4666 16.1353 14.1333 16.1353 15.1999Z" fill="white"/>
</svg>
